HIERARCHY
ROOT reference
{
  OFFSET 0 0 0
  CHANNELS 6 Xposition Yposition Zposition Zrotation Xrotation Yrotation
  JOINT Hips
  {
    OFFSET 36.5526 53.5468 140.525
    CHANNELS 6 Xposition Yposition Zposition Zrotation Xrotation Yrotation
    JOINT Spine
    {
      OFFSET 0 7.3847 0
      CHANNELS 6 Xposition Yposition Zposition Zrotation Xrotation Yrotation
      JOINT Spine1
      {
        OFFSET 0 22.52 0
        CHANNELS 6 Xposition Yposition Zposition Zrotation Xrotation Yrotation
        JOINT Neck
        {
          OFFSET 0 22.4276 2.03887
          CHANNELS 6 Xposition Yposition Zposition Zrotation Xrotation Yrotation
          JOINT Head
          {
            OFFSET 0 12.608 -1.80115
            CHANNELS 6 Xposition Yposition Zposition Zrotation Xrotation Yrotation
            End Site
            {
              OFFSET 0 22.5143 0
            }
          }
        }
        JOINT LeftShoulder
        {
          OFFSET 3.70204 19.5563 -0.329131
          CHANNELS 6 Xposition Yposition Zposition Zrotation Xrotation Yrotation
          JOINT LeftArm
          {
            OFFSET 13.7086 0 0
            CHANNELS 6 Xposition Yposition Zposition Zrotation Xrotation Yrotation
            JOINT LeftForeArm
            {
              OFFSET 25.9307 0 0
              CHANNELS 6 Xposition Yposition Zposition Zrotation Xrotation Yrotation
              JOINT LeftHand
              {
                OFFSET 23.5097 0 0
                CHANNELS 6 Xposition Yposition Zposition Zrotation Xrotation Yrotation
                End Site
                {
                  OFFSET 13.5086 0 0
                }
              }
            }
          }
        }
        JOINT RightShoulder
        {
          OFFSET -3.48695 19.5563 -0.329131
          CHANNELS 6 Xposition Yposition Zposition Zrotation Xrotation Yrotation
          JOINT RightArm
          {
            OFFSET -13.7086 0 0
            CHANNELS 6 Xposition Yposition Zposition Zrotation Xrotation Yrotation
            JOINT RightForeArm
            {
              OFFSET -25.9307 0 0
              CHANNELS 6 Xposition Yposition Zposition Zrotation Xrotation Yrotation
              JOINT RightHand
              {
                OFFSET -23.5097 0 0
                CHANNELS 6 Xposition Yposition Zposition Zrotation Xrotation Yrotation
                End Site
                {
                  OFFSET -13.5086 0 0
                }
              }
            }
          }
        }
      }
    }
    JOINT LeftUpLeg
    {
      OFFSET 9.00574 0 0
      CHANNELS 6 Xposition Yposition Zposition Zrotation Xrotation Yrotation
      JOINT LeftLeg
      {
        OFFSET 0 -37.3387 0
        CHANNELS 6 Xposition Yposition Zposition Zrotation Xrotation Yrotation
        JOINT LeftFoot
        {
          OFFSET 0 -36.155 0
          CHANNELS 6 Xposition Yposition Zposition Zrotation Xrotation Yrotation
          JOINT LeftToeBase
          {
            OFFSET 0 -5.85373 13.5086
            CHANNELS 6 Xposition Yposition Zposition Zrotation Xrotation Yrotation
            End Site
            {
              OFFSET 0 0 3.60229
            }
          }
        }
      }
    }
    JOINT RightUpLeg
    {
      OFFSET -9.00574 0 0
      CHANNELS 6 Xposition Yposition Zposition Zrotation Xrotation Yrotation
      JOINT RightLeg
      {
        OFFSET 0 -37.3387 0
        CHANNELS 6 Xposition Yposition Zposition Zrotation Xrotation Yrotation
        JOINT RightFoot
        {
          OFFSET 0 -36.155 0
          CHANNELS 6 Xposition Yposition Zposition Zrotation Xrotation Yrotation
          JOINT RightToeBase
          {
            OFFSET 0 -5.85373 13.5086
            CHANNELS 6 Xposition Yposition Zposition Zrotation Xrotation Yrotation
            End Site
            {
              OFFSET 0 0 3.60229
            }
          }
        }
      }
    }
  }
}
MOTION
Frames:	10
Frame Time:	0.004
0 0 0 0 0 -0 15.3468 56.3711 -61.7604 2.07616 10.1553 -33.6108 -7.10543e-015 7.3847 1.42109e-014 -10.5678 26.2666 7.06981 3.55271e-015 22.52 0 4.50634 4.45682 4.42204 0 22.4276 2.03887 11.2541 1.44052 -6.96787 0 12.608 -1.80115 -5.91102 -19.265 -10.5741 3.70204 19.5563 -0.329131 -10.1556 -0.822237 -19.9273 13.7086 0 -1.42109e-014 -49.1017 29.3875 -12.1611 25.9307 0 -7.10543e-015 42.6558 -20.7686 -45.4941 23.5097 0 8.88178e-016 -20.3454 -1.16008 -6.40964 -3.48695 19.5563 -0.329131 11.9043 1.36164 13.5602 -13.7086 1.42109e-014 0 17.7179 21.1043 37.665 -25.9307 0 0 -9.49938 0.571311 44.2798 -23.5097 3.55271e-015 3.55271e-015 -6.8808 4.12559 5.28824 9.00574 0 1.42109e-014 26.6929 -63.7073 32.9792 1.77636e-015 -37.3387 3.55271e-015 178.49 77.8548 177.52 8.88178e-016 -36.155 0 -3.26345 -29.5473 -2.43078 1.77636e-015 -5.85373 13.5086 -0 -3.18055e-015 -0 -9.00574 -1.42109e-014 0 -27.5458 -55.7401 -9.75739 7.10543e-015 -37.3387 0 161.772 62.7798 -157.886 0 -36.155 0 7.34456 -16.8178 -13.137 0 -5.85373 13.5086 3.18055e-015 -7.95139e-016 1.59028e-015 
0 0 0 0 0 -0 15.2469 56.4803 -61.6428 1.99456 10.121 -33.126 0 7.3847 0 -10.4934 26.3693 7.06299 0 22.52 0 4.3364 4.43536 4.43023 3.55271e-015 22.4276 2.03887 11.4389 1.3673 -6.67228 0 12.608 -1.80115 -6.21924 -19.1027 -10.3857 3.70204 19.5563 -0.329131 -10.1478 -0.768878 -19.9396 13.7086 1.42109e-014 0 -49.0848 29.4554 -12.1957 25.9307 0 -7.10543e-015 42.7709 -20.7492 -45.4576 23.5097 3.55271e-015 8.88178e-016 -20.7282 -1.03911 -6.61823 -3.48695 19.5563 -0.329131 12.0642 1.43851 13.5417 -13.7086 0 0 17.6114 20.9794 37.6263 -25.9307 3.55271e-015 1.42109e-014 -9.56526 0.571469 44.294 -23.5097 -3.55271e-015 -7.10543e-015 -6.99543 4.15233 5.23022 9.00574 0 0 26.2742 -63.4866 32.6641 8.88178e-016 -37.3387 -8.88178e-015 178.125 78.0605 177.777 -8.88178e-016 -36.155 0 -3.11966 -29.5404 -2.61283 0 -5.85373 13.5086 -2.38542e-015 0 6.36111e-015 -9.00574 -7.10543e-015 0 -27.4538 -56.1723 -9.96833 0 -37.3387 -3.55271e-015 161.333 62.6174 -157.379 0 -36.155 -7.10543e-015 5.35691 -17.824 -14.1893 0 -5.85373 13.5086 -0 -5.56597e-015 -0 
0 0 0 0 0 -0 15.1443 56.5865 -61.5048 1.88135 10.0245 -32.6515 0 7.3847 0 -10.4976 26.4715 7.09828 0 22.52 0 4.31267 4.49054 4.45348 0 22.4276 2.03887 11.5684 1.35313 -6.3993 1.77636e-015 12.608 -1.80115 -6.54212 -19.0472 -10.2167 3.70204 19.5563 -0.329131 -10.2514 -0.671511 -19.9864 13.7086 7.10543e-015 1.42109e-014 -49.0066 29.4658 -12.2636 25.9307 7.10543e-015 0 42.6876 -20.7463 -45.5341 23.5097 0 -2.66454e-015 -20.1982 -1.08592 -6.54486 -3.48695 19.5563 -0.329131 12.1835 1.41939 13.5678 -13.7086 -2.13163e-014 0 17.4999 20.9663 37.5064 -25.9307 0 0 -9.69853 0.520557 44.219 -23.5097 -3.55271e-015 0 -7.02519 4.14962 5.19321 9.00574 0 0 25.8188 -63.1897 32.312 -1.77636e-015 -37.3387 -1.77636e-015 177.86 78.1863 178.119 8.88178e-016 -36.155 -7.10543e-015 -3.09887 -29.5322 -2.92678 1.77636e-015 -5.85373 13.5086 -7.95139e-016 0 6.36111e-015 -9.00574 0 0 -27.2034 -56.5737 -10.4138 7.10543e-015 -37.3387 3.55271e-015 161.849 62.6677 -158.043 -7.10543e-015 -36.155 3.55271e-015 3.96213 -18.7761 -15.202 0 -5.85373 13.5086 -2.64834e-031 -9.54166e-015 -1.59028e-015 
0 0 0 0 0 -0 15.0486 56.6951 -61.3705 1.79047 9.93626 -32.1957 0 7.3847 0 -10.5214 26.5405 7.15564 0 22.52 0 4.30756 4.60476 4.49437 -1.77636e-015 22.4276 2.03887 11.666 1.2745 -6.18502 0 12.608 -1.80115 -6.85405 -18.9863 -10.1071 3.70204 19.5563 -0.329131 -10.3857 -0.584311 -20.0338 13.7086 -7.10543e-015 0 -48.864 29.4614 -12.3989 25.9307 0 0 42.576 -20.929 -45.6713 23.5097 3.55271e-015 -1.33227e-015 -20.3017 -1.29009 -6.411 -3.48695 19.5563 -0.329131 12.2086 1.40605 13.5898 -13.7086 -7.10543e-015 0 17.5868 20.6435 37.3078 -25.9307 0 0 -9.67844 0.712301 44.3174 -23.5097 -3.55271e-015 -3.55271e-015 -7.07566 4.34408 5.12814 9.00574 0 0 25.4632 -62.8357 32.0547 3.55271e-015 -37.3387 -1.77636e-015 177.787 78.4162 177.855 8.88178e-016 -36.155 0 -2.82486 -29.6241 -2.93658 0 -5.85373 13.5086 7.95139e-016 -3.18055e-015 6.36111e-015 -9.00574 0 0 -27.1419 -57.0108 -10.8615 7.10543e-015 -37.3387 7.10543e-015 161.978 62.6581 -157.938 0 -36.155 7.10543e-015 2.04422 -19.3527 -16.4277 7.10543e-015 -5.85373 13.5086 3.18055e-015 4.77083e-015 3.18055e-015 
0 0 0 0 0 -0 14.9461 56.7998 -61.2101 1.67357 9.72279 -31.773 7.10543e-015 7.3847 0 -10.5483 26.6984 7.20758 -3.55271e-015 22.52 0 4.20971 4.72225 4.52416 0 22.4276 2.03887 11.7413 1.30423 -5.93657 -3.55271e-015 12.608 -1.80115 -7.06014 -18.9964 -9.91964 3.70204 19.5563 -0.329131 -10.5185 -0.51439 -20.0627 13.7086 -7.10543e-015 0 -48.7012 29.4954 -12.4981 25.9307 0 7.10543e-015 42.5844 -20.8423 -45.6046 23.5097 0 1.33227e-015 -20.2982 -1.20393 -6.52747 -3.48695 19.5563 -0.329131 12.3512 1.36601 13.5732 -13.7086 -1.42109e-014 -1.42109e-014 17.3998 20.7537 37.3153 -25.9307 -3.55271e-015 0 -9.85538 0.600614 44.2367 -23.5097 -3.55271e-015 0 -7.22145 4.29291 5.09062 9.00574 0 0 25.0407 -62.424 32.1131 1.77636e-015 -37.3387 1.77636e-015 175.913 78.5406 179.522 -8.88178e-016 -36.155 0 -2.69342 -29.4684 -3.02529 0 -5.85373 13.5086 -1.76556e-031 3.18055e-015 3.18055e-015 -9.00574 0 0 -26.8965 -57.2762 -10.8258 0 -37.3387 0 161.694 62.6369 -157.399 7.10543e-015 -36.155 7.10543e-015 0.774929 -20.1128 -17.5784 -7.10543e-015 -5.85373 13.5086 -6.36111e-015 4.77083e-015 4.77083e-015 
0 0 0 0 0 -0 14.857 56.9152 -61.0901 1.59167 9.67975 -31.2014 0 7.3847 0 -10.4643 26.8652 7.16495 0 22.52 -1.42109e-014 4.14527 4.65606 4.49054 0 22.4276 2.03887 11.8638 1.28058 -5.68431 0 12.608 -1.80115 -7.35281 -18.9256 -9.76168 3.70204 19.5563 -0.329131 -10.6311 -0.418399 -20.0966 13.7086 0 1.42109e-014 -48.5846 29.1029 -12.5377 25.9307 0 0 42.1176 -20.7206 -46.1202 23.5097 0 -1.77636e-015 -20.4244 -1.06936 -6.46352 -3.48695 19.5563 -0.329131 12.4554 1.35559 13.5901 -13.7086 -7.10543e-015 0 17.4371 20.3043 37.0838 -25.9307 0 0 -9.52135 0.955777 44.4688 -23.5097 -3.55271e-015 0 -7.48707 4.53171 4.93058 9.00574 0 0 24.5224 -62.2923 31.7182 2.66454e-015 -37.3387 -3.55271e-015 175.184 78.7505 -179.682 0 -36.155 0 -2.72077 -29.2553 -3.4158 -5.32907e-015 -5.85373 13.5086 1.59028e-015 0 6.36111e-015 -9.00574 0 0 -26.8765 -57.6758 -11.3205 0 -37.3387 -3.55271e-015 161.745 62.7618 -157.375 0 -36.155 7.10543e-015 -0.0515722 -20.8109 -18.7291 0 -5.85373 13.5086 6.36111e-015 1.59028e-015 3.18055e-015 
0 0 0 0 0 -0 14.7536 57.0118 -60.9702 1.48431 9.65074 -30.6869 0 7.3847 0 -10.3824 26.9176 7.14659 0 22.52 0 4.07696 4.72067 4.48735 -1.77636e-015 22.4276 2.03887 12.1049 1.21763 -5.43402 0 12.608 -1.80115 -7.78988 -18.8177 -9.66737 3.70204 19.5563 -0.329131 -10.6749 -0.44589 -20.1313 13.7086 -7.10543e-015 0 -48.5742 28.924 -12.578 25.9307 7.10543e-015 -7.10543e-015 41.8366 -20.6352 -46.383 23.5097 -3.55271e-015 0 -20.5307 -1.00121 -6.40635 -3.48695 19.5563 -0.329131 12.6161 1.32453 13.4761 -13.7086 -1.42109e-014 0 17.1591 20.5141 37.197 -25.9307 0 0 -9.90242 0.75389 44.379 -23.5097 -3.55271e-015 3.55271e-015 -7.36635 4.48291 4.93503 9.00574 0 0 24.2443 -62.089 31.3927 1.77636e-015 -37.3387 7.10543e-015 175.283 78.9144 -179.994 0 -36.155 0 -3.07744 -29.0107 -3.67663 0 -5.85373 13.5086 0 0 -0 -9.00574 0 0 -26.5624 -58.1967 -11.6949 7.10543e-015 -37.3387 3.55271e-015 162.261 63.024 -158.372 0 -36.155 7.10543e-015 -0.305168 -21.1988 -18.9053 0 -5.85373 13.5086 3.18055e-015 0 1.59028e-015 
0 0 0 0 0 -0 14.6485 57.1122 -60.84 1.37224 9.56844 -30.1793 0 7.3847 0 -10.2978 27.024 7.13113 0 22.52 0 3.97347 4.78607 4.48415 0 22.4276 2.03887 11.846 1.61305 -5.2336 -3.55271e-015 12.608 -1.80115 -7.45274 -19.3305 -9.3119 3.70204 19.5563 -0.329131 -10.7335 -0.428276 -20.1942 13.7086 -7.10543e-015 0 -48.5334 28.9136 -12.5941 25.9307 -3.55271e-015 -7.10543e-015 41.7319 -20.6497 -46.4945 23.5097 7.10543e-015 -8.88178e-016 -20.4011 -1.05369 -6.24937 -3.48695 19.5563 -0.329131 12.7595 1.24343 13.4823 -13.7086 2.13163e-014 0 17.117 20.5477 37.049 -25.9307 3.55271e-015 0 -10.1514 0.705907 44.4351 -23.5097 0 -3.55271e-015 -7.32604 4.55067 4.84234 9.00574 -7.10543e-015 0 23.9156 -61.8444 31.1354 3.55271e-015 -37.3387 -7.10543e-015 174.868 79.0668 -179.731 2.66454e-015 -36.155 0 -3.01328 -28.8928 -3.87283 -3.55271e-015 -5.85373 13.5086 0 3.18055e-015 -0 -9.00574 0 -1.42109e-014 -26.5693 -58.6198 -12.0106 7.10543e-015 -37.3387 0 161.963 63.1107 -157.492 7.10543e-015 -36.155 7.10543e-015 -0.803157 -21.5405 -19.4682 0 -5.85373 13.5086 -7.06225e-031 3.18055e-015 1.27222e-014 
0 0 0 0 0 -0 14.534 57.2149 -60.71 1.24827 9.48675 -29.6828 -3.55271e-015 7.3847 0 -10.3169 27.1668 7.16314 7.10543e-015 22.52 -1.42109e-014 4.00116 4.77799 4.497 0 22.4276 2.03887 12.1022 1.64745 -4.97783 1.77636e-015 12.608 -1.80115 -7.9488 -19.3558 -9.23101 3.70204 19.5563 -0.329131 -10.8625 -0.429172 -20.2598 13.7086 -1.42109e-014 1.42109e-014 -48.5167 28.9161 -12.5551 25.9307 0 0 41.6886 -20.6238 -46.5153 23.5097 0 1.33227e-015 -20.5467 -0.991409 -6.46115 -3.48695 19.5563 -0.329131 12.8871 1.24986 13.4537 -13.7086 7.10543e-015 0 16.9167 20.6178 37.0314 -25.9307 3.55271e-015 0 -10.3543 0.573999 44.4186 -23.5097 7.10543e-015 1.77636e-015 -7.43398 4.49664 4.83616 9.00574 0 0 23.7045 -61.5506 30.9595 -1.77636e-015 -37.3387 3.55271e-015 174.602 79.2147 -179.784 1.77636e-015 -36.155 7.10543e-015 -2.84729 -28.8057 -3.94293 1.77636e-015 -5.85373 13.5086 2.38542e-015 0 -0 -9.00574 0 0 -26.2967 -59.0747 -12.2147 0 -37.3387 -3.55271e-015 162.021 63.3156 -157.714 0 -36.155 0 -1.35029 -21.7113 -19.629 -7.10543e-015 -5.85373 13.5086 -0 0 1.59028e-015 
0 0 0 0 0 -0 14.4301 57.311 -60.571 1.14252 9.39644 -29.1364 3.55271e-015 7.3847 0 -10.255 27.1821 7.11905 0 22.52 0 3.98935 4.98142 4.45995 3.55271e-015 22.4276 2.03887 12.0948 1.6213 -4.7599 0 12.608 -1.80115 -8.05946 -19.3198 -9.03824 3.70204 19.5563 -0.329131 -10.9941 -0.460179 -20.307 13.7086 7.10543e-015 -1.42109e-014 -48.4315 28.9075 -12.6076 25.9307 3.55271e-015 0 41.6026 -20.5938 -46.6027 23.5097 -3.55271e-015 5.32907e-015 -20.5532 -0.980756 -6.35862 -3.48695 19.5563 -0.329131 12.952 1.2469 13.538 -13.7086 -1.42109e-014 1.42109e-014 16.9325 20.1502 36.9238 -25.9307 7.10543e-015 1.42109e-014 -10.1615 0.893418 44.4693 -23.5097 3.55271e-015 1.77636e-015 -7.52134 4.74296 4.75161 9.00574 -7.10543e-015 0 23.3553 -61.3143 30.5925 -8.88178e-016 -37.3387 -8.88178e-015 174.817 79.3729 179.887 -2.66454e-015 -36.155 -7.10543e-015 -2.73731 -28.6758 -4.14141 1.77636e-015 -5.85373 13.5086 -7.95139e-016 3.18055e-015 3.18055e-015 -9.00574 -7.10543e-015 0 -26.1991 -59.4576 -12.3251 0 -37.3387 -7.10543e-015 161.628 63.4738 -157.136 7.10543e-015 -36.155 -7.10543e-015 -1.8336 -21.9703 -20.0556 -7.10543e-015 -5.85373 13.5086 0 0 -3.18055e-015 
